<svg id="visual" viewBox="0 0 900 450" width="900" height="450" xmlns="http://www.w3.org/2000/svg" xmlns:xlink="http://www.w3.org/1999/xlink" version="1.1"><rect width="900" height="450" fill="#a9c1bc"></rect><g><g transform="translate(379 305)"><path d="M0 -69.4L54.2 -43.3L67.6 15.4L30.1 62.5L-30.1 62.5L-67.6 15.4L-54.2 -43.3Z" fill="#62fad9"></path></g><g transform="translate(237 24)"><path d="M0 -54L42.2 -33.7L52.6 12L23.4 48.7L-23.4 48.7L-52.6 12L-42.2 -33.7Z" fill="#62fad9"></path></g><g transform="translate(798 402)"><path d="M0 -56L43.8 -34.9L54.6 12.5L24.3 50.5L-24.3 50.5L-54.6 12.5L-43.8 -34.9Z" fill="#62fad9"></path></g><g transform="translate(701 298)"><path d="M0 -16L12.5 -10L15.6 3.6L6.9 14.4L-6.9 14.4L-15.6 3.6L-12.5 -10Z" fill="#62fad9"></path></g><g transform="translate(346 164)"><path d="M0 -53L41.4 -33L51.7 11.8L23 47.8L-23 47.8L-51.7 11.8L-41.4 -33Z" fill="#62fad9"></path></g><g transform="translate(853 176)"><path d="M0 -56L43.8 -34.9L54.6 12.5L24.3 50.5L-24.3 50.5L-54.6 12.5L-43.8 -34.9Z" fill="#62fad9"></path></g><g transform="translate(142 213)"><path d="M0 -22L17.2 -13.7L21.4 4.9L9.5 19.8L-9.5 19.8L-21.4 4.9L-17.2 -13.7Z" fill="#62fad9"></path></g><g transform="translate(51 5)"><path d="M0 -55L43 -34.3L53.6 12.2L23.9 49.6L-23.9 49.6L-53.6 12.2L-43 -34.3Z" fill="#62fad9"></path></g><g transform="translate(600 88)"><path d="M0 -31L24.2 -19.3L30.2 6.9L13.5 27.9L-13.5 27.9L-30.2 6.9L-24.2 -19.3Z" fill="#62fad9"></path></g><g transform="translate(580 395)"><path d="M0 -21L16.4 -13.1L20.5 4.7L9.1 18.9L-9.1 18.9L-20.5 4.7L-16.4 -13.1Z" fill="#62fad9"></path></g><g transform="translate(5 167)"><path d="M0 -62L48.5 -38.7L60.4 13.8L26.9 55.9L-26.9 55.9L-60.4 13.8L-48.5 -38.7Z" fill="#62fad9"></path></g><g transform="translate(229 442)"><path d="M0 -56L43.8 -34.9L54.6 12.5L24.3 50.5L-24.3 50.5L-54.6 12.5L-43.8 -34.9Z" fill="#62fad9"></path></g></g></svg>